<svg width="12" height="22" viewBox="0 0 12 22" fill="none" xmlns="http://www.w3.org/2000/svg">
<path d="M2.02749 3.70805L1.31922 3.00212L0.613281 3.71039L1.32156 4.41633L2.02749 3.70805ZM8.82893 10.487L9.53487 9.77877L9.53487 9.77877L8.82893 10.487ZM3.43937 2.2915L4.1453 1.58323L3.43703 0.877292L2.73109 1.58557L3.43937 2.2915ZM10.2408 9.07049L10.9467 8.36222L10.9467 8.36222L10.2408 9.07049ZM10.6066 12.4595L9.74933 11.9445L9.74933 11.9445L10.6066 12.4595ZM10.2408 12.9291L9.53487 12.2208L9.53487 12.2208L10.2408 12.9291ZM3.43937 19.7081L2.73109 20.414L3.43703 21.1223L4.1453 20.4163L3.43937 19.7081ZM2.02749 18.2915L1.32156 17.5832L0.613281 18.2892L1.31922 18.9974L2.02749 18.2915ZM8.82893 11.5125L8.12301 10.8042L8.123 10.8042L8.82893 11.5125ZM8.89209 11.4296L9.74933 11.9445L9.74933 11.9445L8.89209 11.4296ZM1.32156 4.41633L8.123 11.1953L9.53487 9.77877L2.73343 2.99978L1.32156 4.41633ZM2.73109 1.58557L1.31922 3.00212L2.73577 4.41399L4.14764 2.99744L2.73109 1.58557ZM10.9467 8.36222L4.1453 1.58323L2.73343 2.99978L9.53487 9.77877L10.9467 8.36222ZM11.4638 12.9744C12.2976 11.5863 12.1809 9.5923 10.9467 8.36222L9.53487 9.77877C10.0564 10.2986 10.1559 11.2676 9.74933 11.9445L11.4638 12.9744ZM10.9467 13.6373C11.1506 13.4341 11.3225 13.2096 11.4638 12.9744L9.74933 11.9445C9.68721 12.048 9.61514 12.1408 9.53487 12.2208L10.9467 13.6373ZM4.1453 20.4163L10.9467 13.6373L9.53487 12.2208L2.73343 18.9998L4.1453 20.4163ZM1.31922 18.9974L2.73109 20.414L4.14764 19.0021L2.73577 17.5856L1.31922 18.9974ZM8.123 10.8042L1.32156 17.5832L2.73343 18.9998L9.53487 12.2208L8.123 10.8042ZM8.03486 10.9147C8.05196 10.8862 8.07973 10.8474 8.12301 10.8042L9.53486 12.2208C9.61511 12.1408 9.68718 12.048 9.74933 11.9445L8.03486 10.9147ZM8.123 11.1953C8.04234 11.1149 8.0142 11.0468 8.00869 11.0331C8.00409 11.0216 8.00216 11.0144 8.00146 11.0115C8.00106 11.0098 8.00086 11.0087 8.00077 11.0082C8.00067 11.0077 8.00065 11.0075 8.00065 11.0074C8.00065 11.0074 8.00065 11.0074 8.00064 11.0074C8.00064 11.0073 8.00063 11.007 8.00065 11.0063C8.00068 11.0052 8.00085 11.0017 8.00195 10.9955C8.00394 10.9845 8.01098 10.9544 8.03485 10.9147L9.74933 11.9445C9.98335 11.5549 10.0245 11.1301 9.98971 10.7985C9.95773 10.4941 9.84093 10.0838 9.53487 9.77877L8.123 11.1953Z" fill="#FFCC33"/>
</svg>
