<svg width="12" height="22" viewBox="0 0 12 22" fill="none" xmlns="http://www.w3.org/2000/svg">
<path d="M9.97253 3.70805L10.6808 3.00212L11.3867 3.71039L10.6785 4.41633L9.97253 3.70805ZM3.17109 10.487L2.46516 9.77877L2.46516 9.77877L3.17109 10.487ZM8.56066 2.2915L7.85472 1.58323L8.563 0.877292L9.26894 1.58557L8.56066 2.2915ZM1.75922 9.07049L1.05328 8.36222L1.05328 8.36222L1.75922 9.07049ZM1.39346 12.4595L2.2507 11.9445L2.2507 11.9445L1.39346 12.4595ZM1.75922 12.9291L2.46516 12.2208L2.46516 12.2208L1.75922 12.9291ZM8.56066 19.7081L9.26894 20.414L8.563 21.1223L7.85472 20.4163L8.56066 19.7081ZM9.97253 18.2915L10.6785 17.5832L11.3867 18.2892L10.6808 18.9974L9.97253 18.2915ZM3.17109 11.5125L3.87702 10.8042L3.87703 10.8042L3.17109 11.5125ZM3.10794 11.4296L2.2507 11.9445L2.2507 11.9445L3.10794 11.4296ZM10.6785 4.41633L3.87703 11.1953L2.46516 9.77877L9.2666 2.99978L10.6785 4.41633ZM9.26894 1.58557L10.6808 3.00212L9.26426 4.41399L7.85239 2.99744L9.26894 1.58557ZM1.05328 8.36222L7.85472 1.58323L9.2666 2.99978L2.46516 9.77877L1.05328 8.36222ZM0.536221 12.9744C-0.29754 11.5863 -0.180876 9.5923 1.05328 8.36222L2.46516 9.77877C1.94364 10.2986 1.8441 11.2676 2.2507 11.9445L0.536221 12.9744ZM1.05328 13.6373C0.849409 13.4341 0.677518 13.2096 0.536221 12.9744L2.2507 11.9445C2.31282 12.048 2.38489 12.1408 2.46516 12.2208L1.05328 13.6373ZM7.85472 20.4163L1.05328 13.6373L2.46516 12.2208L9.2666 18.9998L7.85472 20.4163ZM10.6808 18.9974L9.26894 20.414L7.85239 19.0021L9.26426 17.5856L10.6808 18.9974ZM3.87703 10.8042L10.6785 17.5832L9.2666 18.9998L2.46516 12.2208L3.87703 10.8042ZM3.96517 10.9147C3.94807 10.8862 3.92029 10.8474 3.87702 10.8042L2.46517 12.2208C2.38492 12.1408 2.31285 12.048 2.2507 11.9445L3.96517 10.9147ZM3.87703 11.1953C3.95768 11.1149 3.98583 11.0468 3.99134 11.0331C3.99593 11.0216 3.99787 11.0144 3.99857 11.0115C3.99897 11.0098 3.99917 11.0087 3.99926 11.0082C3.99935 11.0077 3.99938 11.0075 3.99938 11.0074C3.99938 11.0074 3.99938 11.0074 3.99938 11.0074C3.99939 11.0073 3.9994 11.007 3.99938 11.0063C3.99934 11.0052 3.99918 11.0017 3.99807 10.9955C3.99609 10.9845 3.98905 10.9544 3.96518 10.9147L2.2507 11.9445C2.01668 11.5549 1.9755 11.1301 2.01032 10.7985C2.04229 10.4941 2.15909 10.0838 2.46516 9.77877L3.87703 11.1953Z" fill="#FFCC33"/>
</svg>
