<svg width="21" height="9" viewBox="0 0 21 9" fill="none" xmlns="http://www.w3.org/2000/svg">
<path d="M9.05005 7.51535L8.5568 8.38524L8.48504 8.34456L8.42093 8.29266L9.05005 7.51535ZM11.6219 7.65928L11.3004 6.71236L11.6219 7.65928ZM11.95 7.51535L12.5791 8.29266L12.515 8.34456L12.4432 8.38524L11.95 7.51535ZM1.62912 0.222691L9.67917 6.73805L8.42093 8.29266L0.370881 1.77731L1.62912 0.222691ZM9.5433 6.64547C9.67163 6.71824 9.94636 6.80145 10.3239 6.82258C10.6903 6.84308 11.046 6.79872 11.3004 6.71236L11.9434 8.60621C11.397 8.79169 10.7766 8.85104 10.2122 8.81945C9.65888 8.78849 9.04807 8.66381 8.5568 8.38524L9.5433 6.64547ZM11.3004 6.71236C11.3744 6.68726 11.4254 6.6632 11.4567 6.64547L12.4432 8.38524C12.2844 8.47526 12.115 8.54794 11.9434 8.60621L11.3004 6.71236ZM11.3208 6.73805L19.3709 0.222691L20.6291 1.77731L12.5791 8.29266L11.3208 6.73805Z" fill="white"/>
</svg>
